<?xml version="1.0" encoding="utf-8"?>
<!-- Generator: Adobe Illustrator 26.0.2, SVG Export Plug-In . SVG Version: 6.00 Build 0)  -->
<svg version="1.1" id="Layer_1" xmlns="http://www.w3.org/2000/svg" xmlns:xlink="http://www.w3.org/1999/xlink" x="0px" y="0px"
	 viewBox="0 0 710.03 34.46" style="enable-background:new 0 0 710.03 34.46;" xml:space="preserve">
<style type="text/css">
	.st0{fill:#FFFFFF;}
</style>
<g>
	<path class="st0" d="M0,22.11V18.4V0.29h14.69c6.1,0,11.03,4.69,11.03,10.74c0,6.1-4.98,11.08-11.03,11.08H3.71v12.35H0V22.11z
		 M14.69,18.4c4.05,0,7.32-3.27,7.32-7.37C22.01,6.98,18.7,4,14.69,4H3.71v14.4H14.69z"/>
	<path class="st0" d="M141.72,6.54v27.92h-3.71V0L141.72,6.54z M167.79,34.46h-3.71V19.18h-11.03l-2.1-3.71h13.13V0.29h3.71V34.46z"
		/>
	<path class="st0" d="M280.08,0.29h4.64l6.79,8.98h-4.64L280.08,0.29z M295.85,19.62l14.01-19.33h4.49l-14.84,20.5v13.67h-3.66
		V19.62z"/>
	<path class="st0" d="M435.86,4c-3.22,0-5.76,2.34-5.76,5.56s2.54,5.81,5.76,5.81h2.34h4.29h2.34c5.27,0,9.47,4.25,9.47,9.52
		c0,5.22-4.2,9.57-9.47,9.57H430.3l-2.1-3.71h16.64c3.22,0,5.81-2.64,5.81-5.86s-2.59-5.86-5.81-5.86h-2.34h-4.29h-2.34
		c-5.27,0-9.47-4.2-9.47-9.47c0-5.27,4.2-9.27,9.47-9.27h14.55l2.1,3.71H435.86z"/>
	<path class="st0" d="M570.07,0v34.46h-3.71V6.54L570.07,0z"/>
	<path class="st0" d="M691.58,4c-3.22,0-5.76,2.34-5.76,5.56s2.54,5.81,5.76,5.81h2.34h4.29h2.34c5.27,0,9.47,4.25,9.47,9.52
		c0,5.22-4.2,9.57-9.47,9.57h-14.55l-2.1-3.71h16.64c3.22,0,5.81-2.64,5.81-5.86s-2.59-5.86-5.81-5.86h-2.34h-4.29h-2.34
		c-5.27,0-9.47-4.2-9.47-9.47c0-5.27,4.2-9.27,9.47-9.27h14.55l2.1,3.71H691.58z"/>
</g>
</svg>
